<!DOCTYPE svg PUBLIC "-//W3C//DTD SVG 1.1//EN" "http://www.w3.org/Graphics/SVG/1.1/DTD/svg11.dtd">
<!-- Uploaded to: SVG Repo, www.svgrepo.com, Transformed by: SVG Repo Mixer Tools -->
<svg fill="#0000ff" height="800px" width="800px" version="1.1" id="Layer_1" xmlns="http://www.w3.org/2000/svg" xmlns:xlink="http://www.w3.org/1999/xlink" viewBox="-6.4 -6.4 76.80 76.80" enable-background="new 0 0 64 64" xml:space="preserve" stroke="#0000ff" stroke-width="0.704">
<g id="SVGRepo_bgCarrier" stroke-width="0" transform="translate(5.440000000000001,5.440000000000001), scale(0.83)">
<rect x="-6.4" y="-6.4" width="76.80" height="76.80" rx="38.4" fill="#ffffff" strokewidth="0"/>
</g>
<g id="SVGRepo_tracerCarrier" stroke-linecap="round" stroke-linejoin="round"/>
<g id="SVGRepo_iconCarrier"> <g id="Info-mark"> <path d="M38.5351982,47.6064987H34.455101V28.4473c0-0.5527-0.4473-1-1-1h-4.5204945c-0.5523071,0-1,0.4473-1,1s0.4476929,1,1,1 h3.5204945v18.1591988h-5.1216011c-0.5522003,0-1,0.4472008-1,1c0,0.5527,0.4477997,1,1,1h11.2016983c0.5527,0,1-0.4473,1-1 C39.5351982,48.0536995,39.0878983,47.6064987,38.5351982,47.6064987z"/> <circle cx="32" cy="18" r="3"/> <path d="M32,0c-17.6730995,0-32,14.3268995-32,32s14.3268995,32,32,32s32-14.3269005,32-32S49.6730995,0,32,0z M32,62 c-16.542099,0-30-13.457901-30-30c0-16.5419998,13.4578991-30,30-30s30,13.4580002,30,30C62,48.542099,48.542099,62,32,62z"/> </g> </g>
</svg>